Coordinates
version=1
nRows=14
nColumns=24
inDegrees=yes

Units are S.I. units (second, meters, Newtons, ...)
Angles are in degrees.

endheader
time	pelvis_tilt	pelvis_list	pelvis_rotation	pelvis_tx	pelvis_ty	pelvis_tz	hip_flexion_r	hip_adduction_r	hip_rotation_r	knee_angle_r	ankle_angle_r	subtalar_angle_r	mtp_angle_r	hip_flexion_l	hip_adduction_l	hip_rotation_l	knee_angle_l	ankle_angle_l	subtalar_angle_l	mtp_angle_l	lumbar_extension	lumbar_bending	lumbar_rotation
      0.92500000	     20.58026275	     -4.31990698	      3.82913272	     -0.22375145	      0.85652617	      0.00413905	     -3.39642155	      2.32940458	    -20.19349948	    -36.45120330	     33.23147770	      5.93650919	     30.17569505	    -19.37351563	     -2.43908027	    -11.84932142	    -19.30020366	     29.27949279	     13.94386948	     29.04098711	    -35.22413152	      4.28904072	    -10.55586268
      0.93000000	     20.73483379	     -4.55035336	      4.03827623	     -0.21847124	      0.85662531	      0.00409843	     -3.69125306	      2.87847265	    -20.81108178	    -33.57025001	     33.01976580	      6.37856973	     30.31422997	    -19.92636814	     -2.80279710	    -11.86397254	    -19.30352583	     29.52050112	     14.17696864	     28.88372793	    -35.37547553	      4.56915178	    -10.62059037
      0.93500000	     20.89733911	     -4.82060036	      4.19551083	     -0.21305148	      0.85667070	      0.00421675	     -4.05381132	      3.51135832	    -21.36989958	    -30.54004941	     32.69241029	      6.80501381	     30.57166656	    -20.49618940	     -3.21920338	    -12.08872343	    -19.33923144	     29.82176724	     14.60079618	     28.70089499	    -35.51977446	      4.85447182	    -10.61367819
      0.94000000	     21.04810231	     -5.10452969	      4.30643764	     -0.20757203	      0.85663398	      0.00452914	     -4.45569184	      4.20471534	    -21.83862600	    -27.36695035	     32.16773528	      7.23629714	     31.38001847	    -21.04379108	     -3.66007027	    -12.44955900	    -19.43643007	     30.24378156	     15.15933392	     28.22309049	    -35.64708673	      5.11078832	    -10.51686654
      0.94500000	     21.17948658	     -5.32519474	      4.48306967	     -0.20200028	      0.85651346	      0.00475732	     -4.88606332	      4.84563939	    -22.47704005	    -24.13040671	     31.60960312	      7.77854706	     32.02848073	    -21.58024801	     -4.04930657	    -12.68850671	    -19.49101819	     30.56584602	     15.58599227	     27.88450487	    -35.73875760	      5.33936916	    -10.55899171
      0.95000000	     21.26669267	     -5.48378117	      4.69700406	     -0.19640585	      0.85625411	      0.00497345	     -5.29376606	      5.44603897	    -23.19187776	    -20.86530785	     31.05415033	      8.35842339	     32.43063021	    -22.05020584	     -4.38690975	    -12.79799925	    -19.57323850	     30.87035601	     15.98213861	     27.72500035	    -35.77677514	      5.52441291	    -10.64972126
      0.95500000	     21.27589187	     -5.67490997	      4.81869144	     -0.19070093	      0.85580374	      0.00545634	     -5.63807108	      6.11412515	    -23.75315857	    -17.52812393	     30.07203829	      8.73350366	     34.96877004	    -22.42530223	     -4.76054672	    -13.14495365	    -19.75169620	     31.36998313	     16.60793439	     26.73575007	    -35.72257057	      5.67541052	    -10.67279271
      0.96000000	     21.30911092	     -5.75268450	      4.96331060	     -0.18497609	      0.85529383	      0.00584963	     -6.01244482	      6.65804327	    -24.44597000	    -14.30078604	     29.37721926	      9.57490815	     35.08708644	    -22.86001115	     -4.99336105	    -13.30452026	    -19.82430855	     31.70976306	     16.86338104	     26.71224229	    -35.69323293	      5.73805593	    -10.77964452
      0.96500000	     21.27697716	     -5.82434877	      5.02878047	     -0.17922398	      0.85461825	      0.00651807	     -6.33306704	      7.22839447	    -24.96030200	    -11.05642791	     28.30347750	     10.16280362	     37.25711436	    -23.18126022	     -5.23989485	    -13.65824241	    -20.05971713	     32.09736536	     17.53446238	     26.13647089	    -35.59639214	      5.73223058	    -10.79847255
      0.97000000	     21.21691288	     -5.79420787	      5.07485369	     -0.17348907	      0.85383346	      0.00714185	     -6.57159253	      7.65697707	    -25.56990424	     -8.10053869	     27.50175296	     11.15675964	     37.49203659	    -23.50253937	     -5.34026840	    -13.86966363	    -20.20527531	     32.38864549	     17.86453498	     26.10892657	    -35.47716464	      5.62681258	    -10.88976793
      0.97500000	     21.04848220	     -5.76822921	      5.08056675	     -0.16779136	      0.85281772	      0.00786221	     -6.62894323	      8.06602510	    -26.16262266	     -5.38666339	     26.58475788	     12.11590585	     39.31703580	    -23.65682293	     -5.44418172	    -14.12101302	    -20.48649180	     32.80830012	     18.24778233	     25.74614209	    -35.24763364	      5.50078736	    -10.92433665
      0.98000000	     20.86662339	     -5.67281381	      5.07989558	     -0.16217278	      0.85176730	      0.00857784	     -6.63397214	      8.38883180	    -26.73544717	     -2.90535332	     25.79644334	     13.11759504	     39.49357659	    -23.80157645	     -5.46102656	    -14.25341681	    -20.73025759	     33.09965768	     18.56105978	     25.75318909	    -35.01755072	      5.30818967	    -11.01113913
      0.98500000	     20.60191883	     -5.60677522	      5.04138121	     -0.15656259	      0.85057376	      0.00933801	     -6.48595981	      8.70780348	    -27.30374746	     -0.70724112	     25.03264036	     14.22032968	     39.73220668	    -23.83885524	     -5.49201420	    -14.42673337	    -21.02213170	     33.41267465	     18.78752640	     25.76220500	    -34.70169901	      5.12961829	    -11.04319918
      0.99000000	     20.37283173	     -5.47005056	      4.97097507	     -0.15099125	      0.84941754	      0.01010445	     -6.32922406	      8.91578574	    -27.95570910	      1.21517630	     24.39744704	     15.69734173	     40.57007610	    -23.92350992	     -5.44188319	    -14.60652842	    -21.30776071	     33.69403267	     19.18986377	     25.69158534	    -34.43556274	      4.87002378	    -11.08062199
